<svg viewBox="-1.5 -1.5 8 8" xmlns="http://www.w3.org/2000/svg" fill="hsl(208 100% 85%)"><rect x="0" y="1" width="1" height="1"></rect><rect x="0" y="2" width="1" height="1"></rect><rect x="0" y="4" width="1" height="1"></rect><rect x="1" y="2" width="1" height="1"></rect><rect x="1" y="3" width="1" height="1"></rect><rect x="1" y="4" width="1" height="1"></rect><rect x="2" y="0" width="1" height="1"></rect><rect x="2" y="1" width="1" height="1"></rect><rect x="2" y="2" width="1" height="1"></rect><rect x="2" y="3" width="1" height="1"></rect><rect x="2" y="4" width="1" height="1"></rect><rect x="4" y="1" width="1" height="1"></rect><rect x="4" y="2" width="1" height="1"></rect><rect x="4" y="4" width="1" height="1"></rect><rect x="3" y="2" width="1" height="1"></rect><rect x="3" y="3" width="1" height="1"></rect><rect x="3" y="4" width="1" height="1"></rect></svg>
